<svg width="24" height="24" viewBox="0 0 24 24" fill="none" xmlns="http://www.w3.org/2000/svg">
<path d="M13.275 17.5H15.675V17.425L11.55 13.05L11.575 12.975H11.825C12.725 12.975 13.4708 12.7 14.0625 12.15C14.6542 11.6 15.0167 10.9583 15.15 10.225H16.15V9.05H15.125C15.075 8.8 14.9875 8.5625 14.8625 8.3375C14.7375 8.1125 14.5833 7.89167 14.4 7.675H16.15V6.5H7.85V7.925H11.75C12.1833 7.925 12.5375 8.03333 12.8125 8.25C13.0875 8.46667 13.275 8.73333 13.375 9.05H7.85V10.225H13.4C13.3 10.5583 13.1083 10.8458 12.825 11.0875C12.5417 11.3292 12.1583 11.45 11.675 11.45H9.175V13.05L13.275 17.5ZM12 22C10.6167 22 9.31667 21.7375 8.1 21.2125C6.88333 20.6875 5.825 19.975 4.925 19.075C4.025 18.175 3.3125 17.1167 2.7875 15.9C2.2625 14.6833 2 13.3833 2 12C2 10.6167 2.2625 9.31667 2.7875 8.1C3.3125 6.88333 4.025 5.825 4.925 4.925C5.825 4.025 6.88333 3.3125 8.1 2.7875C9.31667 2.2625 10.6167 2 12 2C13.3833 2 14.6833 2.2625 15.9 2.7875C17.1167 3.3125 18.175 4.025 19.075 4.925C19.975 5.825 20.6875 6.88333 21.2125 8.1C21.7375 9.31667 22 10.6167 22 12C22 13.3833 21.7375 14.6833 21.2125 15.9C20.6875 17.1167 19.975 18.175 19.075 19.075C18.175 19.975 17.1167 20.6875 15.9 21.2125C14.6833 21.7375 13.3833 22 12 22ZM12 20C14.2333 20 16.125 19.225 17.675 17.675C19.225 16.125 20 14.2333 20 12C20 9.76667 19.225 7.875 17.675 6.325C16.125 4.775 14.2333 4 12 4C9.76667 4 7.875 4.775 6.325 6.325C4.775 7.875 4 9.76667 4 12C4 14.2333 4.775 16.125 6.325 17.675C7.875 19.225 9.76667 20 12 20Z" fill="#676767"/>
</svg>
