<svg width="24" height="24" viewBox="0 0 24 24" fill="none" xmlns="http://www.w3.org/2000/svg">
<path d="M6.4 19H17.575L15.475 16.9C14.9917 17.25 14.4542 17.5208 13.8625 17.7125C13.2708 17.9042 12.65 18 12 18C11.35 18 10.7292 17.9 10.1375 17.7C9.54583 17.5 9.00833 17.225 8.525 16.875L6.4 19ZM5 17.575L7.1 15.475C6.75 14.9917 6.47917 14.4542 6.2875 13.8625C6.09583 13.2708 6 12.65 6 12C6 11.35 6.1 10.7292 6.3 10.1375C6.5 9.54583 6.775 9.00833 7.125 8.525L5 6.4V17.575ZM8.55 14.025L10.6 12L8.55 9.975C8.36667 10.275 8.22917 10.5917 8.1375 10.925C8.04583 11.2583 8 11.6167 8 12C8 12.3833 8.04583 12.7417 8.1375 13.075C8.22917 13.4083 8.36667 13.725 8.55 14.025ZM12 16C12.3833 16 12.7417 15.9542 13.075 15.8625C13.4083 15.7708 13.725 15.6333 14.025 15.45L12 13.4L9.95 15.45C10.25 15.6333 10.5708 15.7708 10.9125 15.8625C11.2542 15.9542 11.6167 16 12 16ZM12 10.575L14.025 8.55C13.725 8.36667 13.4083 8.22917 13.075 8.1375C12.7417 8.04583 12.3833 8 12 8C11.6167 8 11.2583 8.04583 10.925 8.1375C10.5917 8.22917 10.275 8.36667 9.975 8.55L12 10.575ZM15.45 14.025C15.6333 13.725 15.7708 13.4083 15.8625 13.075C15.9542 12.7417 16 12.3833 16 12C16 11.6167 15.9542 11.2542 15.8625 10.9125C15.7708 10.5708 15.6333 10.25 15.45 9.95L13.425 11.975L15.45 14.025ZM19 17.575V6.4L16.875 8.525C17.225 9.00833 17.5 9.54583 17.7 10.1375C17.9 10.7292 18 11.35 18 12C18 12.65 17.9042 13.2708 17.7125 13.8625C17.5208 14.4542 17.25 14.9917 16.9 15.475L19 17.575ZM15.475 7.125L17.6 5H6.425L8.525 7.1C9.00833 6.75 9.54583 6.47917 10.1375 6.2875C10.7292 6.09583 11.35 6 12 6C12.65 6 13.2708 6.1 13.8625 6.3C14.4542 6.5 14.9917 6.775 15.475 7.125ZM5 21C4.45 21 3.97917 20.8042 3.5875 20.4125C3.19583 20.0208 3 19.55 3 19V5C3 4.45 3.19583 3.97917 3.5875 3.5875C3.97917 3.19583 4.45 3 5 3H19C19.55 3 20.0208 3.19583 20.4125 3.5875C20.8042 3.97917 21 4.45 21 5V19C21 19.55 20.8042 20.0208 20.4125 20.4125C20.0208 20.8042 19.55 21 19 21H5Z" fill="#676767"/>
</svg>
